<svg width="64" height="48" viewBox="0 0 64 48" fill="none" xmlns="http://www.w3.org/2000/svg">
<rect width="64" height="48" rx="8" fill="#D13239"/>
<path fill-rule="evenodd" clip-rule="evenodd" d="M23.5926 15.381C23.3224 15.109 23.0004 14.8986 22.6474 14.7633C22.2399 14.6053 21.819 14.4877 21.3902 14.4123C20.9154 14.3261 20.4355 14.2736 19.9538 14.255C19.6086 14.2397 19.3871 14.2397 19.3871 14.2397H11.1495L8 34H10.9409L12.1022 26.6805L17.8068 26.7093C17.8068 26.7093 20.0295 26.8033 21.6043 25.9344C23.1791 25.0674 23.5982 23.0956 23.5982 23.0956C23.5982 23.0956 23.7717 22.3629 23.9175 21.4729C24.0858 20.3993 24.2378 19.3232 24.3735 18.2447C24.3735 18.2447 24.4142 18.0433 24.4142 17.7268C24.4287 17.1258 24.2952 16.531 24.0265 15.9986C23.9093 15.7733 23.7634 15.5656 23.5926 15.381ZM21.3274 18.8681C21.3274 18.9045 21.0652 20.4889 20.72 22.3686C20.5889 23.086 20.0554 23.4734 19.4498 23.6096C18.4418 23.8321 17.3563 23.7899 17.3563 23.7899L12.5932 23.7765L13.6418 17.2108L17.9582 17.2243C17.9582 17.2243 18.248 17.2185 18.656 17.2243C19.1175 17.2319 19.7323 17.253 20.2363 17.3259C20.672 17.3835 21.0172 17.4755 21.128 17.6194C21.26 17.8083 21.3369 18.0327 21.3495 18.2658C21.3754 18.5804 21.3274 18.847 21.3274 18.8681Z" fill="white"/>
<path fill-rule="evenodd" clip-rule="evenodd" d="M26.4431 21.164L29.4209 21.1717L29.6 19.9729C29.6 19.9729 29.9175 17.8055 30.6302 17.3892C30.8572 17.255 31.2228 17.1322 31.6455 17.0536C32.4246 16.9097 33.4123 16.8944 34.2209 16.9231C35.4578 16.9672 35.9268 16.9807 37.1822 17.1322C38.4394 17.2818 38.1218 18.5458 38.1218 18.5458L37.8726 20.4313C37.8726 20.4313 37.7618 21.2791 37.472 21.8028C37.2172 22.2689 36.512 22.5854 36.1058 22.7216C35.1255 23.0515 31.7674 23.9395 31.7674 23.9395L29.1311 24.7298C29.1311 24.7298 27.5065 25.217 26.6018 26.2585C25.9089 27.0674 25.4288 28.0486 25.208 29.1069C25.0843 29.7226 24.3865 33.9923 24.3865 33.9923L38.6258 34L39.1022 31.0442L27.8406 31.0576L28.04 29.8531C28.04 29.8531 28.1711 28.6101 28.6548 28.2035C28.8062 28.0731 28.8818 27.9004 29.7809 27.5705C30.3182 27.3691 32.1551 26.8608 32.1551 26.8608L36.4012 25.6543C36.4012 25.6543 38.7218 25.0386 39.6338 23.717C40.5458 22.4051 40.8985 19.8866 40.8985 19.8866C40.8985 19.8866 41.1458 17.441 40.9538 16.6719C40.7674 15.9046 40.0677 14.9858 39.2185 14.5926C38.3692 14.1975 37.4868 13.9673 34.9243 14.0038C32.3637 14.0402 31.0917 14.1611 29.7938 14.6636C28.496 15.1585 27.7446 16.0638 27.2665 17.3394C26.7495 18.5516 26.4449 21.164 26.4449 21.164H26.4431ZM53.2511 26.6594L55.2468 14.2339H51.7114L40.7046 26.5156L40.2062 29.6306H49.8338L49.1286 33.9923L52.0843 34L52.7822 29.6306L55.5089 29.6363L56 26.6594H53.2511ZM50.3102 26.6671L44.0886 26.6594L51.6634 18.2735L50.3102 26.6671Z" fill="#D4D4D4"/>
</svg>
