<svg width="64" height="48" viewBox="0 0 64 48" fill="none" xmlns="http://www.w3.org/2000/svg">
<rect x="1" y="1" width="62" height="46" rx="7" fill="white"/>
<rect x="1" y="1" width="62" height="46" rx="7" stroke="#ECECF0" stroke-width="2"/>
<g clip-path="url(#clip0_203_1393)">
<path d="M42.142 28.4869L42.0073 29.2422C41.6563 29.1251 38.3028 28.3466 38.2557 30.8287C38.2178 32.8163 41.2682 32.5696 41.9672 32.384L42.0456 33.2078C39.7527 33.8469 36.7058 33.1544 36.6423 30.8099C36.5697 28.1068 40.5988 27.7692 42.142 28.4869Z" fill="#231F20"/>
<path d="M42.142 28.4869L42.0073 29.2422C41.6563 29.1251 38.3028 28.3466 38.2557 30.8287C38.2178 32.8163 41.2682 32.5696 41.9672 32.384L42.0456 33.2078C39.7527 33.8469 36.7058 33.1544 36.6423 30.8099C36.5697 28.1068 40.5988 27.7692 42.142 28.4869Z" stroke="#231F20" stroke-width="0.160605"/>
<path d="M44.5138 33.3428L44.5133 29.0862L42.4529 29.0866V28.2738L47.9913 28.2726L47.9918 29.0853L45.9706 29.0857L45.9711 33.3423L44.5138 33.3428Z" fill="#231F20"/>
<path d="M44.5138 33.3428L44.5133 29.0862L42.4529 29.0866V28.2738L47.9913 28.2725L47.9918 29.0853L45.9706 29.0857L45.9711 33.3423L44.5138 33.3428Z" stroke="#231F20" stroke-width="0.160605"/>
<path d="M32.158 28.2388L36.2425 28.2374L36.2429 29.0879L33.5215 29.0883L33.5224 33.3064H32.1587L32.158 28.2388Z" fill="#231F20"/>
<path d="M32.158 28.2388L36.2425 28.2374L36.2429 29.0879L33.5215 29.0883L33.5224 33.3064H32.1587L32.158 28.2388Z" stroke="#231F20" stroke-width="0.160605"/>
<path d="M33.3938 30.3736L36.083 30.3732V31.2233L33.3938 31.2237V30.3736Z" fill="#231F20"/>
<path d="M33.3938 30.3736L36.083 30.3732V31.2233L33.3938 31.2237V30.3736Z" stroke="#231F20" stroke-width="0.160605"/>
<path d="M33.3943 32.4564L36.2223 32.456V33.3055L33.3943 33.3064V32.4564Z" fill="#231F20"/>
<path d="M33.3943 32.4564L36.2223 32.456V33.3055L33.3943 33.3064V32.4564Z" stroke="#231F20" stroke-width="0.160605"/>
<path d="M23.0209 33.2981L23.02 28.251L24.5461 28.2505L24.547 33.2977L23.0209 33.2981Z" fill="#231F20"/>
<path d="M23.0209 33.2981L23.02 28.251L24.5461 28.2506L24.547 33.2977L23.0209 33.2981Z" stroke="#231F20" stroke-width="0.160605"/>
<path d="M16.0092 33.3419L16.0083 28.2953L17.5344 28.2949L17.5353 33.3415L16.0092 33.3419Z" fill="#231F20"/>
<path d="M16.0092 33.3419L16.0083 28.2953L17.5344 28.2949L17.5353 33.3416L16.0092 33.3419Z" stroke="#231F20" stroke-width="0.160605"/>
<path d="M17.0232 33.3416L17.3328 32.5235L18.4744 32.4914C19.798 32.491 20.5982 31.7576 20.5978 30.791C20.5978 29.6223 19.5306 29.0699 18.7087 29.0704L17.3214 28.9963L17.1294 28.2949L18.7405 28.2944C20.5943 28.294 22.1984 29.2821 22.1988 30.8384C22.1992 32.4056 20.5952 33.3411 18.7413 33.3416H17.0232Z" fill="#231F20"/>
<path d="M17.0232 33.3416L17.3328 32.5235L18.4744 32.4914C19.798 32.491 20.5982 31.7576 20.5978 30.791C20.5978 29.6223 19.5306 29.0699 18.7087 29.0704L17.3214 28.9963L17.1294 28.2949L18.7405 28.2944C20.5943 28.294 22.1984 29.2821 22.1988 30.8384C22.1992 32.4056 20.5952 33.3411 18.7413 33.3416H17.0232Z" stroke="#231F20" stroke-width="0.160605"/>
<path d="M16.0107 39.6831L16.0098 34.6361L17.5359 34.6356L17.5368 39.6826L16.0107 39.6831Z" fill="#231F20"/>
<path d="M16.0107 39.6831L16.0098 34.6361L17.5359 34.6356L17.5368 39.6826L16.0107 39.6831Z" stroke="#231F20" stroke-width="0.160605"/>
<path d="M17.0244 39.6826L17.3336 38.8646L18.4756 38.8322C19.7991 38.8322 20.599 38.0988 20.599 37.1322C20.5985 35.9635 19.5313 35.4111 18.7095 35.4111L17.3222 35.337L17.1301 34.6361L18.7416 34.6356C20.5955 34.6352 22.1995 35.6229 22.1999 37.1795C22.1999 38.7468 20.5964 39.6818 18.7425 39.6823L17.0244 39.6826Z" fill="#231F20"/>
<path d="M17.0244 39.6826L17.3336 38.8646L18.4756 38.8322C19.7991 38.8322 20.599 38.0988 20.599 37.1322C20.5985 35.9635 19.5313 35.4111 18.7095 35.4111L17.3222 35.337L17.1301 34.6361L18.7416 34.6356C20.5955 34.6352 22.1995 35.6229 22.1999 37.1795C22.1999 38.7468 20.5964 39.6818 18.7425 39.6823L17.0244 39.6826Z" stroke="#231F20" stroke-width="0.160605"/>
<path d="M31.4316 39.7028L31.4307 34.2309H32.9035L32.9044 39.7024L31.4316 39.7028Z" fill="#231F20"/>
<path d="M31.4316 39.7028L31.4307 34.2309H32.9035L32.9044 39.7024L31.4316 39.7028Z" stroke="#231F20" stroke-width="0.160605"/>
<path d="M39.5744 39.7436L39.5735 35.9933L41.0464 35.9929L41.0473 39.7432L39.5744 39.7436Z" fill="#231F20"/>
<path d="M39.5744 39.7436L39.5735 35.9933L41.0464 35.9929L41.0473 39.7432L39.5744 39.7436Z" stroke="#231F20" stroke-width="0.160605"/>
<path d="M39.5735 34.2401L41.0464 34.2397V35.2064L39.5735 35.2068V34.2401Z" fill="#231F20"/>
<path d="M39.5735 34.2401L41.0464 34.2397V35.2064L39.5735 35.2068V34.2401Z" stroke="#231F20" stroke-width="0.160605"/>
<path d="M44.5473 38.7546L44.5469 35.0253L46.0513 35.0249L46.0522 38.5841C46.0522 39.0624 46.8741 39.2109 47.3436 39.0515V39.8799C46.3297 40.114 44.5477 40.0825 44.5473 38.7546Z" fill="#231F20"/>
<path d="M44.5473 38.7546L44.5469 35.0253L46.0513 35.0249L46.0522 38.584C46.0522 39.0624 46.8741 39.2109 47.3436 39.0515V39.8799C46.3297 40.114 44.5477 40.0825 44.5473 38.7546Z" stroke="#231F20" stroke-width="0.160605"/>
<path d="M43.373 36.7889V35.9924L47.3001 35.9915L47.3004 36.7884L43.373 36.7889Z" fill="#231F20"/>
<path d="M43.373 36.7889V35.9924L47.3001 35.9915L47.3004 36.7884L43.373 36.7889Z" stroke="#231F20" stroke-width="0.160605"/>
<path d="M39.9993 17.2306C39.9979 11.614 36.607 9.18278 32.7527 8.32751V8.03685C39.7636 8.39586 44.9008 12.6355 44.9017 17.4914C44.9031 23.036 38.8621 26.9956 31.409 26.9972C23.9563 26.9986 17.9467 22.7455 17.9453 17.4976C17.9444 11.9914 23.1918 8.01103 32.1384 8.00879L32.1397 14.8488L30.0247 14.8076C25.4926 14.9681 20.2452 16.9355 20.2457 19.5777C20.2461 22.4838 25.2292 25.9759 31.2112 25.9745C36.0498 25.9736 40.0001 22.4794 39.9993 17.2306Z" fill="#231F20"/>
<path d="M39.9993 17.2305C39.9979 11.614 36.607 9.18273 32.7527 8.32746V8.0368C39.7636 8.39581 44.9008 12.6355 44.9017 17.4914C44.9031 23.036 38.8621 26.9955 31.409 26.9972C23.9563 26.9985 17.9467 22.7454 17.9453 17.4975C17.9444 11.9914 23.1918 8.01098 32.1384 8.00874L32.1397 14.8488L30.0247 14.8076C25.4926 14.9681 20.2452 16.9355 20.2457 19.5776C20.2461 22.4837 25.2292 25.9758 31.2112 25.9745C36.0498 25.9736 40.0001 22.4793 39.9993 17.2305Z" stroke="#231F20" stroke-width="0.160605"/>
<path d="M32.1024 25.188C29.5342 25.0061 26.2314 23.3043 26.231 20.3689C26.2305 17.4629 29.0428 15.3552 32.1007 15.2386L32.1024 25.188Z" fill="#231F20"/>
<path d="M32.1024 25.188C29.5342 25.0061 26.2314 23.3043 26.231 20.3689C26.2305 17.4629 29.0428 15.3551 32.1007 15.2385L32.1024 25.188Z" stroke="#231F20" stroke-width="0.160605"/>
<path d="M25.391 37.3575L27.7601 37.3509C27.6958 36.7819 27.269 36.4632 26.6287 36.4632C25.9349 36.4637 25.4122 36.7293 25.391 37.3575ZM25.3804 38.0571C25.4553 39.513 28.4005 38.9918 28.7955 38.5771V39.4591C28.2084 39.7353 27.4527 39.7672 26.6132 39.7677C25.0835 39.7681 23.8437 38.9927 23.8433 37.7283C23.8433 36.6017 24.985 35.7092 26.6123 35.7087C27.8662 35.7087 29.2541 36.2926 29.158 38.0562L25.3804 38.0571Z" fill="#231F20"/>
<path d="M25.391 37.3575L27.7601 37.3509C27.6958 36.7819 27.269 36.4632 26.6287 36.4632C25.9349 36.4637 25.4122 36.7293 25.391 37.3575ZM25.3804 38.0572C25.4553 39.5131 28.4005 38.9918 28.7955 38.5771V39.4591C28.2084 39.7353 27.4527 39.7673 26.6132 39.7677C25.0835 39.7681 23.8437 38.9927 23.8433 37.7283C23.8433 36.6017 24.985 35.7092 26.6123 35.7087C27.8662 35.7087 29.2541 36.2926 29.158 38.0563L25.3804 38.0572Z" stroke="#231F20" stroke-width="0.160605"/>
<path d="M27.3531 30.4285L28.3459 30.428C28.7405 30.428 29.3061 30.1728 29.3061 29.7533C29.3061 29.2909 28.8383 29.0681 28.3671 29.0681H27.3531V30.4285ZM30.8322 29.5776C30.8326 30.7783 29.6971 30.869 29.6373 30.8738C29.8188 30.9909 29.9808 31.2228 29.9891 31.2351L31.1589 33.3064L29.5668 33.3069L28.7622 31.7984C28.7516 31.7725 28.5485 31.278 27.9279 31.2886L27.3642 31.289L27.3646 33.3078H25.8517L25.8508 28.2401L28.586 28.2392C29.3514 28.2392 30.8322 28.4303 30.8322 29.5776Z" fill="#231F20"/>
<path d="M27.3531 30.4285L28.3459 30.4281C28.7405 30.4281 29.3061 30.1729 29.3061 29.7534C29.3061 29.2909 28.8383 29.0681 28.3671 29.0681H27.3531V30.4285ZM30.8322 29.5776C30.8326 30.7783 29.6971 30.869 29.6373 30.8738C29.8188 30.9909 29.9808 31.2228 29.9891 31.2351L31.1589 33.3064L29.5668 33.3069L28.7622 31.7984C28.7516 31.7725 28.5485 31.2781 27.9279 31.2886L27.3642 31.2891L27.3646 33.3078H25.8517L25.8508 28.2401L28.586 28.2392C29.3514 28.2392 30.8322 28.4303 30.8322 29.5776Z" stroke="#231F20" stroke-width="0.160605"/>
<path d="M32.8934 37.859C32.8934 38.496 33.4717 39.012 34.1847 39.0115C34.8978 39.0115 35.4761 38.4951 35.4761 37.8586C35.4756 37.2221 34.8978 36.7061 34.1843 36.7061C33.4712 36.7065 32.8934 37.2225 32.8934 37.859ZM32.4556 37.817C32.4556 36.4193 33.3841 35.8565 34.7128 35.8561C35.9536 35.8556 36.9485 36.5141 36.9489 37.8156C36.9489 39.0856 35.9434 39.8401 34.7027 39.8405C33.2674 39.8405 32.456 39.2351 32.4556 37.817Z" fill="#231F20"/>
<path d="M32.8934 37.859C32.8934 38.4959 33.4717 39.012 34.1847 39.0115C34.8978 39.0115 35.4761 38.495 35.4761 37.8586C35.4756 37.2221 34.8978 36.7061 34.1843 36.7061C33.4712 36.7065 32.8934 37.2225 32.8934 37.859ZM32.4556 37.817C32.4556 36.4193 33.3841 35.8565 34.7128 35.8561C35.9536 35.8556 36.9485 36.514 36.9489 37.8156C36.9489 39.0856 35.9434 39.8401 34.7027 39.8405C33.2674 39.8405 32.456 39.2351 32.4556 37.817Z" stroke="#231F20" stroke-width="0.160605"/>
</g>
<defs>
<clipPath id="clip0_203_1393">
<rect width="32" height="32" fill="white" transform="translate(16 8)"/>
</clipPath>
</defs>
</svg>
