<svg width="64" height="64" viewBox="0 0 64 64" fill="none" xmlns="http://www.w3.org/2000/svg">
<rect x="0.5" y="0.5" width="63" height="63" rx="13.5" fill="white"/>
<rect x="0.5" y="0.5" width="63" height="63" rx="13.5" stroke="#EEEEEE"/>
<path fill-rule="evenodd" clip-rule="evenodd" d="M9.6875 9.19H25.3125V24.815H9.6875V9.19ZM12.1875 11.69V22.315H22.8125V11.69H12.1875Z" fill="#333333"/>
<path d="M21.25 13.2525H13.75V20.7525H21.25V13.2525Z" fill="#333333"/>
<path fill-rule="evenodd" clip-rule="evenodd" d="M39.6875 9.19H55.3125V24.815H39.6875V9.19ZM42.1875 11.69V22.315H52.8125V11.69H42.1875Z" fill="#333333"/>
<path d="M51.25 13.2525H43.75V20.7525H51.25V13.2525Z" fill="#333333"/>
<path fill-rule="evenodd" clip-rule="evenodd" d="M39.6875 39.19H55.3125V54.815H39.6875V39.19ZM42.1875 41.69V52.315H52.8125V41.69H42.1875Z" fill="#333333"/>
<path d="M51.25 43.2525H43.75V50.7525H51.25V43.2525Z" fill="#333333"/>
<path fill-rule="evenodd" clip-rule="evenodd" d="M9.6875 39.19H25.3125V54.815H9.6875V39.19ZM12.1875 41.69V52.315H22.8125V41.69H12.1875Z" fill="#333333"/>
<path d="M21.25 43.2525H13.75V50.7525H21.25V43.2525Z" fill="#333333"/>
<path fill-rule="evenodd" clip-rule="evenodd" d="M30.3125 9.19H34.6875V54.815H30.3125V9.19Z" fill="#333333"/>
<path d="M55 30.1275H10V33.8775H55V30.1275Z" fill="#333333"/>
<g clip-path="url(#clip0_202_477)">
<path d="M19.5 21.5252V42.5402C19.5 43.5639 20.343 44.3467 21.3065 44.3467H33.8914C43.4054 44.3467 47.5 39.0478 47.5 32.0026C47.5 24.9574 43.4054 19.6585 33.8914 19.6585H21.3667C20.343 19.7187 19.5 20.5617 19.5 21.5252Z" fill="white"/>
<path d="M27.9303 24.8972V40.4327H34.6743C40.8163 40.4327 43.4657 36.9402 43.4657 32.0628C43.4657 27.366 40.8163 23.7531 34.6743 23.7531H29.0743C28.4722 23.6929 27.9303 24.2348 27.9303 24.8972Z" fill="#CC0066"/>
<path d="M33.8914 42.7209H22.9925C22.029 42.7209 21.2462 41.9381 21.2462 40.9746V23.151C21.2462 22.1876 22.029 21.4048 22.9925 21.4048H33.8914C44.2484 21.4048 45.814 28.0886 45.814 32.0628C45.814 38.9273 41.5989 42.7209 33.8914 42.7209ZM22.9925 22.0069C22.3301 22.0069 21.8484 22.5488 21.8484 23.151V40.9746C21.8484 41.637 22.3903 42.1187 22.9925 42.1187H33.8914C41.1774 42.1187 45.2118 38.5058 45.2118 32.0026C45.2118 23.2714 38.1065 21.9467 33.8914 21.9467L22.9925 22.0069Z" fill="black"/>
<path d="M30.3387 29.9553C30.5795 29.9553 30.8204 30.0155 31.001 30.0757C31.1817 30.1359 31.3623 30.2564 31.543 30.437C31.6634 30.6177 31.7838 30.7983 31.9043 30.979C31.9645 31.2198 32.0247 31.4607 32.0247 31.7617C32.0247 32.0628 31.9645 32.3037 31.9043 32.4843C31.8441 32.7252 31.7236 32.9058 31.6032 33.0865C31.4828 33.2671 31.3021 33.3876 31.0613 33.508C30.8806 33.6284 30.5795 33.6284 30.3387 33.6284H28.7129V29.8951L30.3387 29.9553ZM30.2785 32.966C30.3989 32.966 30.5193 32.966 30.6398 32.9058C30.7602 32.8456 30.8204 32.7854 30.9408 32.7252C31.001 32.6048 31.1215 32.5445 31.1215 32.3639C31.1817 32.2435 31.1817 32.0628 31.1817 31.822C31.1817 31.6413 31.1817 31.4607 31.1215 31.3402C31.0613 31.2198 31.001 31.0392 30.9408 30.979C30.8806 30.8585 30.7602 30.7983 30.6398 30.7381C30.5193 30.6779 30.3387 30.6779 30.158 30.6779H29.5559V33.0263L30.2785 32.966Z" fill="white"/>
<path d="M35.3367 29.9553V30.6177H33.3496V31.4607H35.156V32.0628H33.3496V32.966H35.3367V33.6284H32.5065V29.8951L35.3367 29.9553Z" fill="white"/>
<path d="M38.1066 29.9553L39.4915 33.6887H38.6485L38.3474 32.8456H36.9625L36.6614 33.6887H35.8184L37.2033 29.9553C37.2636 29.9553 38.1066 29.9553 38.1066 29.9553ZM38.1668 32.2435L37.6851 30.8585L37.2033 32.2435H38.1668Z" fill="white"/>
<path d="M40.8159 29.9553V32.966H42.6224V33.6284H39.9729V29.8951C40.0331 29.9553 40.8159 29.9553 40.8159 29.9553Z" fill="white"/>
<path d="M24.8591 33.5079C25.7903 33.5079 26.5452 32.7531 26.5452 31.8219C26.5452 30.8908 25.7903 30.1359 24.8591 30.1359C23.928 30.1359 23.1731 30.8908 23.1731 31.8219C23.1731 32.7531 23.928 33.5079 24.8591 33.5079Z" fill="black"/>
<path d="M26.184 40.4327C24.7388 40.4327 23.5947 39.2886 23.5947 37.8435V35.7962C23.5947 35.0736 24.1969 34.4714 24.9195 34.4714C25.642 34.4714 26.2442 35.0736 26.2442 35.7962L26.184 40.4327Z" fill="black"/>
</g>
<defs>
<clipPath id="clip0_202_477">
<rect width="28" height="24.6882" fill="white" transform="translate(19.5 19.6585)"/>
</clipPath>
</defs>
</svg>
